<?xml version="1.0" encoding="utf-8"?>
<!-- Generator: Adobe Illustrator 28.4.1, SVG Export Plug-In . SVG Version: 6.00 Build 0)  -->
<svg version="1.1" id="Layer_1" xmlns="http://www.w3.org/2000/svg" xmlns:xlink="http://www.w3.org/1999/xlink" x="0px" y="0px"
	 viewBox="0 0 595.28 155.96" style="enable-background:new 0 0 595.28 155.96;" xml:space="preserve">
<style type="text/css">
	.st0{fill:#FFFFFF;}
</style>
<g>
	<g>
		<g>
			<path class="st0" d="M45.63,95.53l7.96,24.63h0.51l10.11-25.52c1.26-3.28,2.27-4.93,4.29-5.18v-1.39c-0.76,0-2.27,0.25-4.55,0.25
				c-2.27,0-3.79-0.25-4.55-0.25v1.14c3.54,0.25,4.29,0.76,4.29,1.64c-0.13,1.39-0.38,2.65-0.88,3.92l-7.2,19.07h-0.13l-5.68-19.71
				c-0.38-1.14-0.63-2.15-0.76-3.28c0-1.01,1.14-1.52,3.66-1.52V88.2c-1.01,0-3.03,0.25-6.06,0.25c-3.03,0-5.18-0.25-6.06-0.25v1.14
				c1.64,0,2.65,0.25,2.91,0.76c0.63,1.26,1.14,2.65,1.39,4.17c0,0.38-0.13,0.76-0.25,1.14l-6.06,18.06h-0.13l-7.2-21.6
				c-0.13-0.51-0.25-1.01-0.38-1.52c0-0.88,1.64-1.14,3.54-1.14v-1.14c-1.26,0-3.16,0.25-5.81,0.25c-3.03,0-4.93-0.51-5.81-0.51
				v1.52c2.27,0.13,2.65,0.38,3.41,2.4l10.61,28.42h0.51L45.63,95.53z"/>
			<path class="st0" d="M76.83,119.4v-1.14h-3.41V105c0-3.28,0.13-4.42,0.13-5.05c0-0.63,0-0.76-0.25-0.76
				c-2.27,0.51-4.55,0.76-6.82,0.88v1.26l1.64,0.13c0.63,0,1.64,0.25,1.64,0.51c0,1.64,0.13,3.28,0.13,5.18v6.95
				c0,1.52-0.13,2.91-0.25,4.29h-3.28v1.14L76.83,119.4z M69.25,91.99c-0.13,1.14,0.76,2.27,1.89,2.4h0.51
				c1.26,0,2.27-1.14,2.27-2.4c0.13-1.14-0.63-2.27-1.89-2.4c-0.13,0-0.25,0-0.38,0C70.26,89.72,69.25,90.73,69.25,91.99z"/>
			<path class="st0" d="M101.33,119.4v-1.14H98.3v-12.38c0-4.8-3.03-7.2-6.69-7.2c-3.41,0-5.18,1.89-6.69,4.55h-0.13
				c0-1.26,0-3.79-0.25-3.79c-0.51,0-4.29,0.51-6.44,0.51v1.26c1.77,0,3.03,0,3.16,1.14c0.25,1.26,0.38,2.53,0.38,3.79v9.09
				c0,1.26-0.25,2.27-0.25,2.78c0,0.25-0.25,0.51-0.51,0.51h-2.53v1.01c1.89,0,3.66-0.13,5.43-0.13h4.42v-0.88h-3.16v-12.25
				c-0.25-3.16,2.15-5.94,5.43-6.19c2.27,0,3.92,1.01,3.92,3.41v13.64c0,1.01-0.51,1.52-2.15,1.52h-1.26v0.88L101.33,119.4z"/>
			<path class="st0" d="M125.08,119.4v-1.14h-3.03v-12.38c0-4.8-3.03-7.2-6.69-7.2c-3.41,0-5.18,1.89-6.69,4.55h-0.13
				c0-1.26,0-3.79-0.25-3.79c-0.51,0-4.29,0.51-6.44,0.51v1.26c1.77,0,3.03,0,3.16,1.14c0.25,1.26,0.38,2.53,0.38,3.79v9.09
				c0,1.26-0.25,2.27-0.25,2.78c0,0.25-0.25,0.51-0.51,0.51h-2.53v1.01c1.89,0,3.66-0.13,5.43-0.13h4.42v-0.88h-3.16v-12.25
				c-0.25-3.16,2.15-5.94,5.43-6.19c2.27,0,3.92,1.01,3.92,3.41v13.64c0,1.01-0.51,1.52-2.15,1.52h-1.26v0.88L125.08,119.4z"/>
			<path class="st0" d="M136.32,119.4v-1.14h-3.54V105c0-3.28,0.13-4.42,0.13-5.05c0-0.63,0-0.76-0.25-0.76
				c-2.27,0.51-4.55,0.76-6.82,0.88v1.26l1.64,0.13c0.63,0,1.64,0.25,1.64,0.51c0,1.64,0.13,3.28,0.13,5.18v6.95
				c0,1.52-0.13,2.91-0.25,4.29h-3.28v1.14L136.32,119.4z M128.74,91.99c-0.13,1.14,0.76,2.27,1.89,2.4h0.38
				c1.26,0,2.27-1.14,2.27-2.4c0.13-1.14-0.63-2.27-1.89-2.4c-0.13,0-0.25,0-0.38,0C129.75,89.59,128.74,90.73,128.74,91.99z"/>
			<path class="st0" d="M149.2,132.16l-3.66-0.51c-1.01-0.13-1.64-0.88-1.64-1.89l-0.25-12.13c1.64,1.64,3.79,2.53,6.06,2.53
				c6.06,0,9.98-4.67,9.98-10.86c0-5.43-3.28-10.61-8.59-10.61c-3.03,0-5.94,1.52-7.45,4.17h-0.13l-0.13-2.02
				c-0.13-1.14-0.13-1.39-0.63-1.39c-1.14,0-3.92,0.38-6.32,0.51v1.26l1.52,0.13c1.14,0.13,1.39,0.25,1.52,0.88
				c0.51,3.16,0.63,6.44,0.51,9.73v14.02c0,1.39-0.13,4.55-0.25,5.68l-3.41,0.25v1.52c2.15,0,4.04-0.25,6.44-0.25
				s4.29,0.25,6.44,0.25V132.16z M143.39,107.91c0-4.93,2.91-7.45,5.81-7.45c4.17,0,6.44,4.04,6.44,9.85s-3.16,8.97-6.44,8.97
				c-2.4,0-5.68-1.77-5.68-4.55v-6.82H143.39z"/>
			<path class="st0" d="M181.16,108.16c0-5.18-3.03-9.47-8.84-9.47c-6.44,0-10.61,5.05-10.61,11.37c0,5.68,3.28,10.23,9.85,10.23
				c5.43,0,8.21-2.91,9.6-7.2l-0.76-0.25c-1.01,3.03-3.28,6.19-7.83,6.19c-5.05,0-7.07-4.04-6.82-10.74L181.16,108.16z
				 M165.63,107.02c0.13-3.66,2.65-7.45,6.57-7.45c3.54,0,5.05,3.03,5.05,6.19c0,0.88-0.13,1.14-0.51,1.14L165.63,107.02z"/>
			<path class="st0" d="M200.49,97.3c-0.51,1.26-0.88,2.27-2.27,2.27c-0.88-0.13-1.64-0.25-2.53-0.51
				c-1.26-0.25-2.53-0.38-3.92-0.38c-5.05,0-8.34,3.16-8.34,7.71c-0.13,3.03,1.89,5.81,4.8,6.57v0.38
				c-1.89,0.51-3.28,2.15-3.41,4.04c-0.13,1.52,0.76,2.91,2.02,3.41v0.38c-2.4,0.88-4.04,3.16-4.17,5.68c0,4.17,3.79,6.44,9.85,6.44
				c7.96,0,11.24-5.56,11.24-8.72c0-2.91-1.39-5.31-6.57-5.56l-7.33-0.38c-2.27-0.13-3.03-1.01-3.03-2.02
				c0-2.02,1.39-3.16,4.29-3.16c5.94,0,8.72-3.03,8.72-7.71c0-1.77-0.51-3.54-1.64-4.93l0.13-0.13c1.14,0.25,2.27,0.51,3.54,0.51
				c1.39,0,2.02-0.88,2.02-2.15c0-0.38,0-0.76-0.13-1.14L200.49,97.3z M191.77,112.71c-3.41,0-4.67-3.03-4.67-6.06
				c0-3.41,1.14-7.07,5.05-7.07c3.41,0,4.17,3.41,4.17,6.19C196.32,108.79,195.44,112.71,191.77,112.71z M192.66,132.54
				c-4.29,0-8.08-1.64-8.08-6.06c0-2.27,1.39-4.17,3.16-4.17c10.74,0,13.52,0.76,13.52,4.04
				C201.25,130.9,196.19,132.41,192.66,132.54z"/>
			<path class="st0" d="M181.54,90.48c-10.99-14.53-30.82-26.27-57.22-30.06C97.92,56.62,71.9,61.8,46.76,73.3
				c24.88-7.07,43.71-11.12,74.27-7.2C146.8,69.25,167.27,79.11,181.54,90.48z"/>
			<path class="st0" d="M115.6,8.88c1.64-0.51,3.28-0.76,5.05-0.76c10.23,0,18.69,8.72,18.69,19.58s-8.34,19.58-18.57,19.58
				c-8.08-0.13-15.28-5.43-17.68-13.14c3.79,4.93,9.6,7.71,15.66,7.58c10.36,0,18.69-7.45,18.69-16.55s-8.34-16.42-18.69-16.42
				C117.75,8.62,116.61,8.75,115.6,8.88z"/>
			<path class="st0" d="M124.83,16.45c-9.98-4.42-21.73,0.13-26.15,10.11c-4.42,9.98,0.13,21.73,10.11,26.15
				c9.73,4.29,21.09,0.13,25.77-9.35c-4.55,4.42-10.86,6.57-17.05,5.68c-10.61-1.26-18.32-9.73-17.18-18.95
				c1.14-9.22,10.61-15.66,21.22-14.27C122.55,15.95,123.69,16.2,124.83,16.45z"/>
			<path class="st0" d="M127.48,29.34c0-0.13,0.13-0.38,0.13-0.51c0.25-2.27-1.01-4.55-3.16-5.56h0.76
				c3.54,0.38,6.06,3.54,5.68,7.07s-3.54,6.06-7.07,5.68c-2.02-0.25-3.79-1.39-4.8-3.03l-0.13-0.38c-0.38-0.63-0.51-1.39-0.51-2.15
				c0-2.53,2.02-4.67,4.67-4.67C125.08,25.8,126.97,27.19,127.48,29.34z"/>
		</g>
	</g>
	<g>
		<path class="st0" d="M284.69,57.93c0,3.92-2.35,7.47-6.63,7.47c-4.96,0-6.21-3.08-11.43-8.46c-3.65-3.81-7.47-4.59-11.49-4.59
			v6.32c0,1.72,0.47,3.19,1.2,4.28c0.78,1.1,1.83,1.83,3.08,2.04h-12.53c2.51-0.47,4.28-2.92,4.28-6.32V27.75
			c0-1.62-0.47-3.08-1.2-4.18c-0.78-1.15-1.83-1.88-3.08-2.14h7.47h0.78h12.22c11.33,0,17.02,6.94,17.02,15.45
			c0,8.51-4.96,15.45-17.02,15.45h-6.89c7.62,1.3,10.29,5.64,16.08,8.25C283.39,63.62,284.69,57.93,284.69,57.93z M255.14,51.51
			h9.76c10.7,0,15.45-6.53,15.45-14.62c0-8.09-4.96-14.62-15.45-14.62h-9.76V51.51z M290.9,53.38c-0.05,0.05-0.1,0.1-0.1,0.1
			L290.9,53.38z"/>
		<path class="st0" d="M311.57,58.97c-2.35,3.97-6.27,6.16-11.28,6.16c-7.52,0-13.57-4.75-13.57-13.1c0-8.41,6.06-13.16,13.57-13.16
			c6.89,0,11.96,4.23,12.84,11.17c0.05,0.26,0.1,0.52,0.1,0.83h-22.55c0,0.37,0,0.73,0,1.15c0,7.83,5.48,11.38,9.61,11.85
			C307.55,64.61,310.48,60.17,311.57,58.97z M290.79,50.04h18.43c-0.73-6.47-4.28-10.39-8.93-10.39
			C295.65,39.65,291.47,43.41,290.79,50.04z"/>
		<path class="st0" d="M339.4,44.77l-8.56,19.27l-0.42,0.94h-0.89h-2.66l-9.09-20.41c-1.1-2.45-2.97-4.65-5.69-5.27h12.48
			c-2.03,0.36-3.76,2.19-2.56,4.91l8.41,18.85l8.2-18.43c0.99-2.25-0.42-4.96-2.56-5.32h9.24C342.58,40.02,340.91,41.48,339.4,44.77
			z"/>
		<path class="st0" d="M351.03,58.66V48.01c0-1.83-0.73-5.53-4.23-6.32l8.25-2.4v19.37c0,1.72,0.42,3.19,1.2,4.28
			c0.73,1.1,1.77,1.83,3.03,2.04H346.8C349.26,64.51,351.03,62.05,351.03,58.66z M350.56,34.33c0-1.36,1.1-2.45,2.45-2.45
			s2.45,1.1,2.45,2.45c0,1.36-1.1,2.45-2.45,2.45S350.56,35.69,350.56,34.33z"/>
		<path class="st0" d="M376.72,59.65c-0.1,0.31-0.99,5.59-6.42,5.59c-5.8,0-6.16-5.59-6.16-8.09V40.07h-4.02v-0.78
			c2.4,0,4.39-2.4,5.79-4.75c1.41-2.35,2.25-4.75,2.25-4.75v9.5h7.21v0.78h-7.21v18.12c0,1.46,0.16,5.53,3.66,5.53
			C375.41,63.72,376.56,59.91,376.72,59.65z"/>
		<path class="st0" d="M408.14,59.65c0,0,0,5.59-5.06,5.59c-5.12,0-5.01-6.79-5.01-7.47v-0.05c-1.67,4.07-4.85,6.68-9.08,7.36
			c-0.42,0.05-1.15,0.16-2.04,0.16c-1.62,0-3.86-0.31-5.59-1.67c-1.51-1.15-2.4-2.82-2.61-5.01c-0.21-2.09,0.36-3.97,1.78-5.53
			c4.33-4.8,14.83-5.38,17.49-5.48c-0.21-2.92-1.57-7.78-7.57-7.78c-4.18,0-7.52,4.13-8.2,8.2l-2.51-3.65
			c0.36-0.47,0.73-0.89,1.15-1.31c2.45-2.45,5.9-4.02,9.55-4.02c7.36,0,11.64,4.23,11.64,12.22v7.15c0,2.04,0.47,5.38,2.87,5.22
			C407.52,63.36,408.14,59.65,408.14,59.65z M398.07,52.97v-4.33c0-0.1,0-0.21,0-0.31c-1.46,0.05-5.64,0.26-9.92,1.57
			c-2.19,0.63-5.85,2.35-5.27,7.83c0.73,6.47,7.36,6.47,10.02,4.85c0.89-0.52,1.51-0.99,1.98-1.41c0.37-0.37,0.73-0.78,1.04-1.25
			C397.39,57.93,398.07,55.42,398.07,52.97z"/>
		<path class="st0" d="M420.67,64.98h-12.48c2.45-0.47,4.23-2.92,4.23-6.32V27.75c0.05-1.77-0.73-5.48-4.23-6.32l8.25-2.35v39.58
			c0,1.72,0.47,3.19,1.2,4.28C418.37,64.04,419.47,64.77,420.67,64.98z"/>
		<path class="st0" d="M426.2,58.66V48.01c0-1.83-0.73-5.53-4.23-6.32l8.25-2.4v19.37c0,1.72,0.42,3.19,1.2,4.28
			c0.73,1.1,1.78,1.83,3.03,2.04h-12.48C424.43,64.51,426.2,62.05,426.2,58.66z M425.73,34.33c0-1.36,1.1-2.45,2.45-2.45
			c1.36,0,2.46,1.1,2.46,2.45c0,1.36-1.1,2.45-2.46,2.45C426.83,36.78,425.73,35.69,425.73,34.33z"/>
		<path class="st0" d="M462.06,64.98h-26.42l20.57-24.9h-8.93c-5.9,0-9.45,1.88-9.45,7.62l-1.2-8.41h25.42l-20.57,24.9h9.92
			c5.9,0,9.5-1.88,9.5-7.62L462.06,64.98z"/>
		<path class="st0" d="M494.22,59.65c0,0,0,5.59-5.06,5.59c-5.12,0-5.01-6.79-5.01-7.47v-0.05c-1.67,4.07-4.85,6.68-9.08,7.36
			c-0.42,0.05-1.15,0.16-2.04,0.16c-1.62,0-3.86-0.31-5.59-1.67c-1.51-1.15-2.4-2.82-2.61-5.01c-0.21-2.09,0.36-3.97,1.78-5.53
			c4.33-4.8,14.83-5.38,17.49-5.48c-0.21-2.92-1.57-7.78-7.57-7.78c-4.18,0-7.52,4.13-8.2,8.2l-2.51-3.65
			c0.36-0.47,0.73-0.89,1.15-1.31c2.45-2.45,5.9-4.02,9.55-4.02c7.36,0,11.64,4.23,11.64,12.22v7.15c0,2.04,0.47,5.38,2.87,5.22
			C493.6,63.36,494.22,59.65,494.22,59.65z M484.14,52.97v-4.33c0-0.1,0-0.21,0-0.31c-1.46,0.05-5.64,0.26-9.92,1.57
			c-2.19,0.63-5.85,2.35-5.27,7.83c0.73,6.47,7.36,6.47,10.02,4.85c0.89-0.52,1.51-0.99,1.98-1.41c0.37-0.37,0.73-0.78,1.04-1.25
			C483.47,57.93,484.14,55.42,484.14,52.97z"/>
		<path class="st0" d="M509.25,59.65c-0.1,0.31-0.99,5.59-6.42,5.59c-5.79,0-6.16-5.59-6.16-8.09V40.07h-4.02v-0.78
			c2.4,0,4.39-2.4,5.79-4.75c1.41-2.35,2.25-4.75,2.25-4.75v9.5h7.21v0.78h-7.21v18.12c0,1.46,0.16,5.53,3.66,5.53
			C507.95,63.72,509.1,59.91,509.25,59.65z"/>
		<path class="st0" d="M513.64,58.66V48.01c0-1.83-0.73-5.53-4.23-6.32l8.25-2.4v19.37c0,1.72,0.42,3.19,1.2,4.28
			c0.73,1.1,1.78,1.83,3.03,2.04h-12.48C511.86,64.51,513.64,62.05,513.64,58.66z M513.17,34.33c0-1.36,1.1-2.45,2.45-2.45
			c1.36,0,2.46,1.1,2.46,2.45c0,1.36-1.1,2.45-2.46,2.45C514.26,36.78,513.17,35.69,513.17,34.33z"/>
		<path class="st0" d="M549.66,52.03c0,8.25-6.11,13.16-13.63,13.16c-7.47,0-13.57-4.75-13.57-13.16c0-8.35,6.11-13.11,13.57-13.11
			C543.55,38.92,549.66,43.93,549.66,52.03z M545.69,52.03c0-7.62-4.54-12.32-9.66-12.32c-5.07,0-9.61,4.44-9.61,12.32
			c0,7.88,4.54,12.32,9.61,12.32C541.15,64.35,545.69,59.75,545.69,52.03z"/>
		<path class="st0" d="M577.32,58.66l-0.05-7.47c0-5.22-2.04-9.55-6.42-10.76c-6.47-1.83-10.7,2.51-11.9,3.97v14.25
			c0,1.72,0.42,3.19,1.15,4.28c0.78,1.1,1.83,1.83,3.08,2.04H550.7c2.45-0.47,4.23-2.92,4.23-6.32v-10.7c0-1.83-0.73-5.53-4.23-6.32
			l8.25-2.35v3.81c1.41-1.57,4.33-3.97,9.4-4.12c4.12-0.21,7.41,0.84,9.66,2.98c2.82,2.72,3.29,6.58,3.29,9.35l0.05,7.36
			c0,1.72,0.47,3.19,1.2,4.28c0.78,1.1,1.83,1.83,3.03,2.04H573.1C575.55,64.51,577.32,62.05,577.32,58.66z"/>
		<path class="st0" d="M283.44,122.1h-12.48c2.45-0.47,4.23-2.92,4.23-6.32V92.02h-20.05v23.76c0,3.45,1.77,5.85,4.23,6.32h-12.48
			c2.45-0.47,4.23-2.92,4.23-6.32V84.87c0-3.29-1.78-5.85-4.23-6.32h12.48c-2.45,0.47-4.23,3.03-4.23,6.32v6.37h20.05v-6.37
			c0-1.62-0.42-3.08-1.15-4.18c-0.78-1.15-1.83-1.88-3.08-2.14h12.48c-2.45,0.47-4.23,3.03-4.23,6.32v6.37v0.78v23.76
			c0,1.72,0.47,3.19,1.2,4.28C281.19,121.16,282.24,121.89,283.44,122.1z"/>
		<path class="st0" d="M317.89,122.1h-8.25v-6.32c-1.41,3.03-4.07,6.21-9.45,6.63c-4.13,0.31-7.41-0.83-9.66-3.03
			c-2.82-2.72-3.29-6.58-3.29-9.35v-4.91c0-1.83-0.73-5.53-4.23-6.32l8.25-2.4v13.78c0,5.22,1.98,9.71,6.42,10.76
			c1.67,0.36,3.19,0.31,4.49,0.05c4.39-0.99,7.47-5.06,7.47-9.61v-6.27c0-1.83-0.73-5.53-4.23-6.32l8.25-2.4v19.37
			c0,1.72,0.42,3.19,1.15,4.28C315.59,121.16,316.64,121.89,317.89,122.1z"/>
		<path class="st0" d="M347.38,108.42c0,8.51-4.59,13.94-13,13.94c-4.39,0-7.05-2.19-8.72-5.12c-0.73-1.3-1.98-1.2-2.72,0.16
			l-2.82,4.7V84.87c0-1.77-0.73-5.48-4.23-6.32l8.25-2.35v24.17c1.57-1.51,4.91-4.13,10.13-4.28c4.18-0.21,7.41,0.84,9.66,2.98
			C346.76,101.79,347.38,105.65,347.38,108.42z M343.21,108.31c-0.16-5.22-2.14-9.24-6.42-10.76c-3.71-1.31-7.62,0.42-8.61,0.94
			c-0.05,0-0.16,0.05-0.21,0.11h-0.05c-1.93,1.04-3.19,2.35-3.76,2.98v5.59c0,1.88,0.16,3.76,0.63,5.59
			c0.36,1.62,0.94,3.19,1.77,4.49c1.1,1.62,2.66,4.12,7.88,4.12C341.54,121.36,343.36,113.64,343.21,108.31z"/>
		<circle class="st0" cx="351.04" cy="119.04" r="2.32"/>
	</g>
	
		<rect x="224.08" y="14.32" transform="matrix(-1 -1.224647e-16 1.224647e-16 -1 450.7891 141.5416)" class="st0" width="2.64" height="112.9"/>
</g>
</svg>
